<?xml version="1.0" encoding="utf-8"?>
<!-- Generator: Adobe Illustrator 15.1.0, SVG Export Plug-In . SVG Version: 6.00 Build 0)  -->
<!DOCTYPE svg PUBLIC "-//W3C//DTD SVG 1.1//EN" "http://www.w3.org/Graphics/SVG/1.1/DTD/svg11.dtd">
<svg version="1.1" id="Layer_1" xmlns="http://www.w3.org/2000/svg" xmlns:xlink="http://www.w3.org/1999/xlink" x="0px" y="0px"
	 width="34px" height="200px" viewBox="0 0 34 200" enable-background="new 0 0 34 200" xml:space="preserve">
<g>
	<g>
		<g>
			<path fill="#E5018C" d="M17,198c-1.494,0-2.791-0.667-3.965-2.038C1.208,182.152,9.054,110.633,13.383,82h7.234
				c4.328,28.634,12.174,100.154,0.348,113.963C19.791,197.334,18.494,198,17,198z"/>
			<path fill="#FFFFFF" d="M18.896,84c5.658,38.066,10.525,99.014,0.549,110.661C18.43,195.848,17.605,196,17,196
				c-0.605,0-1.43-0.152-2.446-1.339C4.577,183.014,9.444,122.066,15.104,84H18.896 M22.334,80H11.666C11.666,80-7,200,17,200
				S22.334,80,22.334,80L22.334,80z"/>
		</g>
	</g>
	<g>
		<path fill="#E5018C" d="M17,83C5.636,83,1,77.495,1,64C1,48.224,4.875,1.549,4.914,1.08C4.916,1.049,4.97,1,5,1h1l2.944,50.059
			C9.006,52.129,9.928,53,11,53s1.994-0.871,2.056-1.941l2.885-50.003L17,1c0.028,0,0.078,0.047,0.08,0.075l3.846,50.004
			C21.01,52.157,21.921,53,23,53c1.083,0,1.997-0.88,2.037-1.962l1.924-50L28,1c0.038,0,0.104,0.06,0.107,0.098
			C28.158,1.568,33,48.235,33,64C33,77.495,28.364,83,17,83z"/>
		<path fill="#FFFFFF" d="M27.725,7.233C29.033,20.437,32,51.693,32,64c0,12.953-4.206,18-15,18S2,76.953,2,64
			C2,51.703,4.365,20.53,5.417,7.274l2.529,43.843C8.039,52.733,9.381,54,11,54s2.961-1.267,3.054-2.883l2.517-43.622L19.93,51.16
			C20.055,52.752,21.402,54,23,54c1.614,0,2.977-1.312,3.036-2.922L27.725,7.233 M28,0h-1c-0.55,0-1.018,0.45-1.038,0.999
			l-1.924,50.002C24.018,51.55,23.55,52,23,52s-1.034-0.449-1.077-0.997L18.077,0.997C18.034,0.449,17.55,0,17,0h-1
			c-0.55,0-1.026,0.449-1.058,0.999l-2.885,50.003C12.026,51.551,11.55,52,11,52s-1.026-0.449-1.058-0.999L7.058,0.999
			C7.026,0.449,6.55,0,6,0H5C4.45,0,3.962,0.448,3.917,0.997C3.917,0.997,0,48,0,64c0,14,5,20,17,20s17-6,17-20
			c0-16-4.896-63.005-4.896-63.005C29.047,0.448,28.55,0,28,0L28,0z"/>
	</g>
</g>
</svg>
