<?xml version="1.0" encoding="utf-8"?>
<!-- Generator: Adobe Illustrator 15.1.0, SVG Export Plug-In . SVG Version: 6.00 Build 0)  -->
<!DOCTYPE svg PUBLIC "-//W3C//DTD SVG 1.1//EN" "http://www.w3.org/Graphics/SVG/1.1/DTD/svg11.dtd">
<svg version="1.1" id="Layer_1" xmlns="http://www.w3.org/2000/svg" xmlns:xlink="http://www.w3.org/1999/xlink" x="0px" y="0px"
	 width="28px" height="224px" viewBox="0 0 28 224" enable-background="new 0 0 28 224" xml:space="preserve">
<g>
	<g>
		<path fill="#E5018C" d="M15,222c-1.494,0-2.791-0.667-3.965-2.038C-0.792,206.152,7.054,134.633,11.383,106h7.234
			c4.328,28.634,12.174,100.154,0.348,113.963C17.791,221.334,16.494,222,15,222z"/>
		<path fill="#FFFFFF" d="M16.896,108c5.658,38.066,10.525,99.014,0.549,110.661C16.43,219.848,15.605,220,15,220
			c-0.605,0-1.43-0.152-2.446-1.339c-9.977-11.647-5.11-72.595,0.55-110.661H16.896 M20.334,104H9.666C9.666,104-9,224,15,224
			S20.334,104,20.334,104L20.334,104z"/>
	</g>
	<g>
		<path fill="#E5018C" d="M1,131C1.063,63.639,7.52,31.748,12.94,16.842C17.114,5.363,21.177,2.195,23,1.326V131H1z"/>
		<path fill="#FFFFFF" d="M22,3.213V130H2.002C2.188,29.414,16.503,7.801,22,3.213 M24,0C24,0,0,0,0,132h24V0L24,0z"/>
	</g>
</g>
</svg>
