<?xml version="1.0" encoding="utf-8"?>
<!-- Generator: Adobe Illustrator 15.1.0, SVG Export Plug-In . SVG Version: 6.00 Build 0)  -->
<!DOCTYPE svg PUBLIC "-//W3C//DTD SVG 1.1//EN" "http://www.w3.org/Graphics/SVG/1.1/DTD/svg11.dtd">
<svg version="1.1" id="Layer_1" xmlns="http://www.w3.org/2000/svg" xmlns:xlink="http://www.w3.org/1999/xlink" x="0px" y="0px"
	 width="242px" height="106px" viewBox="0 0 242 106" enable-background="new 0 0 242 106" xml:space="preserve">
<path fill="#FCE600" d="M5.173,104c0.021-3.09-0.83-6.296-1.659-9.418c-1.1-4.146-2.14-8.062-1.043-11.085
	c1.138-3.138,4.422-5.521,7.899-8.046c3.183-2.311,6.473-4.698,8.335-7.93c1.886-3.271,2.312-7.355,2.726-11.308
	c0.444-4.254,0.864-8.273,2.969-10.789c2.112-2.524,5.988-3.635,10.091-4.811c3.799-1.089,7.728-2.215,10.603-4.64
	c2.862-2.413,4.64-6.093,6.359-9.652c1.867-3.865,3.63-7.516,6.489-9.176c1.504-0.874,3.509-1.281,6.308-1.281
	c1.52,0,3.087,0.11,4.747,0.228c1.661,0.117,3.379,0.238,5.052,0.238c2.657,0,4.739-0.309,6.552-0.971
	c3.473-1.27,6.378-4.094,9.188-6.826C92.88,5.529,95.8,2.689,99.1,2.109C99.512,2.037,99.947,2,100.395,2
	c2.836,0,5.99,1.414,9.328,2.911c3.654,1.639,7.432,3.333,11.277,3.333c3.846,0,7.623-1.694,11.277-3.333
	C135.615,3.414,138.77,2,141.604,2c0.447,0,0.883,0.037,1.295,0.109c3.302,0.581,6.223,3.42,9.312,6.426
	c2.811,2.732,5.715,5.557,9.188,6.827c1.813,0.663,3.896,0.972,6.556,0.972c1.672,0,3.39-0.121,5.051-0.238
	c1.659-0.117,3.228-0.227,4.747-0.227c2.799,0,4.805,0.407,6.309,1.28c2.856,1.66,4.621,5.311,6.487,9.175
	c1.722,3.559,3.497,7.24,6.36,9.653c2.874,2.424,6.803,3.55,10.602,4.639c4.104,1.176,7.979,2.286,10.092,4.811
	c2.104,2.516,2.524,6.535,2.971,10.791c0.412,3.949,0.839,8.032,2.725,11.304c1.861,3.231,5.152,5.621,8.334,7.932
	c3.479,2.523,6.762,4.906,7.9,8.046c1.096,3.021,0.057,6.938-1.045,11.084c-0.828,3.122-1.68,6.329-1.657,9.419L5.173,104L5.173,104
	z"/>
<path fill="#FFFFFF" d="M241.409,82.814c-2.488-6.86-12.786-10.053-16.382-16.291c-3.629-6.297-1.26-16.842-5.895-22.38
	c-4.646-5.553-15.406-5.031-20.938-9.695c-5.516-4.651-6.861-15.386-13.133-19.029c-2.103-1.22-4.625-1.551-7.312-1.551
	c-3.186,0-6.598,0.465-9.799,0.465c-2.085,0-4.082-0.198-5.866-0.85c-6.716-2.455-11.642-12.078-18.842-13.344
	C142.703,0.044,142.156,0,141.604,0C135.025,0,127.782,6.244,121,6.244C114.217,6.244,106.974,0,100.395,0
	c-0.552,0-1.099,0.044-1.641,0.139c-7.199,1.266-12.125,10.89-18.84,13.344c-1.785,0.652-3.78,0.85-5.865,0.85
	c-3.201,0-6.613-0.465-9.798-0.465c-2.686,0-5.212,0.331-7.312,1.551c-6.272,3.643-7.617,14.377-13.133,19.028
	c-5.532,4.665-16.292,4.143-20.939,9.696c-4.633,5.538-2.265,16.083-5.894,22.38C13.377,72.762,3.079,75.954,0.59,82.814
	C-1.854,89.557,4.261,98.771,3,106h236C237.738,98.771,243.854,89.557,241.409,82.814z M206.958,42.538
	c3.801,1.089,7.39,2.118,9.108,4.172c1.713,2.047,2.103,5.772,2.515,9.714c0.373,3.568,0.765,7.237,2.19,10.508l-95.312,34.87
	L196.005,37.8C199.15,40.284,203.111,41.436,206.958,42.538z M173.146,18.09c1.621-0.114,3.153-0.222,4.604-0.222
	c2.433,0,4.115,0.321,5.304,1.01c2.326,1.352,3.961,4.735,5.69,8.316c1.588,3.288,3.226,6.672,5.755,9.269l-70.622,64.074
	l37.405-83.122c1.9,0.614,4.029,0.918,6.668,0.918C169.697,18.333,171.45,18.21,173.146,18.09z M141.604,4
	c0.336,0,0.646,0.026,0.948,0.079c2.693,0.474,5.399,3.105,8.265,5.891c2.623,2.549,5.326,5.17,8.603,6.721L122,99.841V10.194
	c3.895-0.248,7.553-1.869,11.096-3.458C136.232,5.329,139.195,4,141.604,4z M99.446,4.079C99.744,4.026,100.063,4,100.395,4
	c2.408,0,5.372,1.329,8.509,2.736c3.543,1.589,7.201,3.21,11.096,3.458v89.647L82.583,16.69c3.274-1.551,5.978-4.172,8.6-6.721
	C94.047,7.184,96.753,4.552,99.446,4.079z M53.254,27.194c1.73-3.581,3.364-6.964,5.693-8.316c1.186-0.689,2.871-1.01,5.303-1.01
	c1.45,0,2.983,0.108,4.606,0.222c1.696,0.12,3.449,0.243,5.192,0.243c2.637,0,4.766-0.304,6.667-0.917l37.405,83.122L47.499,36.463
	C50.029,33.867,51.666,30.482,53.254,27.194z M23.419,56.424c0.412-3.942,0.801-7.666,2.514-9.713
	c1.719-2.055,5.308-3.083,9.108-4.172c3.845-1.102,7.808-2.254,10.954-4.738l70.544,64.004L21.227,66.934
	C22.655,63.662,23.047,59.992,23.419,56.424z M5.447,94.068c-1.018-3.834-1.979-7.457-1.097-9.892
	c0.929-2.561,3.972-4.77,7.194-7.106c3.286-2.387,6.673-4.856,8.761-8.346L111.255,102H7.087
	C6.845,99.332,6.139,96.673,5.447,94.068z M236.553,94.068c-0.691,2.604-1.396,5.264-1.641,7.932H130.745l90.948-33.273
	c2.088,3.487,5.476,5.959,8.761,8.344c3.223,2.34,6.267,4.549,7.194,7.109C238.531,86.611,237.57,90.234,236.553,94.068z"/>
</svg>
