<?xml version="1.0" encoding="utf-8"?>
<!-- Generator: Adobe Illustrator 15.1.0, SVG Export Plug-In . SVG Version: 6.00 Build 0)  -->
<!DOCTYPE svg PUBLIC "-//W3C//DTD SVG 1.1//EN" "http://www.w3.org/Graphics/SVG/1.1/DTD/svg11.dtd">
<svg version="1.1" id="Layer_1" xmlns="http://www.w3.org/2000/svg" xmlns:xlink="http://www.w3.org/1999/xlink" x="0px" y="0px"
	 width="256px" height="256px" viewBox="0 0 256 256" enable-background="new 0 0 256 256" xml:space="preserve">
<g>
	<g>
		<path fill="#ED1C24" d="M127.999,254C58.523,254,2,197.479,2,128.004C2,58.525,58.523,2,127.999,2
			C197.477,2,254,58.525,254,128.004C254,197.479,197.477,254,127.999,254z"/>
		<path fill="#FFFFFF" d="M127.999,4c33.121,0,64.261,12.898,87.681,36.319C239.102,63.74,252,94.88,252,128.004
			c0,33.12-12.898,64.258-36.32,87.678C192.259,239.102,161.12,252,127.999,252c-33.122,0-64.261-12.898-87.681-36.318
			C16.898,192.264,4,161.124,4,128.004C4,94.88,16.898,63.74,40.318,40.319C63.738,16.898,94.877,4,127.999,4 M127.999,0
			C57.306,0,0,57.307,0,128.004C0,198.693,57.306,256,127.999,256C198.689,256,256,198.693,256,128.004
			C256,57.307,198.689,0,127.999,0L127.999,0z"/>
	</g>
	<g>
		<path fill="#FFFFFF" d="M128.004,45C173.77,45,211,82.235,211,128.004C211,173.77,173.77,211,128.004,211
			C82.235,211,45,173.77,45,128.004C45,82.235,82.235,45,128.004,45 M128.004,43C81.058,43,43,81.051,43,128.004
			S81.058,213,128.004,213C174.95,213,213,174.957,213,128.004S174.95,43,128.004,43L128.004,43z"/>
	</g>
</g>
</svg>
