<?xml version="1.0" encoding="utf-8"?>
<!-- Generator: Adobe Illustrator 15.1.0, SVG Export Plug-In . SVG Version: 6.00 Build 0)  -->
<!DOCTYPE svg PUBLIC "-//W3C//DTD SVG 1.1//EN" "http://www.w3.org/Graphics/SVG/1.1/DTD/svg11.dtd">
<svg version="1.1" id="Layer_1" xmlns="http://www.w3.org/2000/svg" xmlns:xlink="http://www.w3.org/1999/xlink" x="0px" y="0px"
	 width="50px" height="192px" viewBox="0 0 50 192" enable-background="new 0 0 50 192" xml:space="preserve">
<g>
	<g>
		<path fill="#E5018C" d="M25,189.998c-1.494,0-2.791-0.667-3.965-2.038c-11.827-13.81-3.98-85.329,0.348-113.962h7.234
			c4.328,28.634,12.174,100.154,0.348,113.963C27.791,189.332,26.494,189.998,25,189.998z"/>
		<path fill="#FFFFFF" d="M26.896,75.998c5.658,38.066,10.524,99.014,0.549,110.661c-1.016,1.187-1.84,1.339-2.445,1.339
			c-0.605,0-1.43-0.152-2.446-1.339c-9.977-11.647-5.109-72.595,0.55-110.661H26.896 M30.334,71.998H19.666
			c0,0-18.666,120,5.334,120S30.334,71.998,30.334,71.998L30.334,71.998z"/>
	</g>
	<g>
		<path fill="#E5018C" d="M25,79C13.901,79,1,61.964,1,40C1,18.035,13.901,0.998,25,0.998c11.1,0,24,17.037,24,39.002
			C49,61.964,36.1,79,25,79z"/>
		<path fill="#FFFFFF" d="M25,1.998c5.146,0,10.877,4.055,15.327,10.847C45.203,20.288,48,30.186,48,40s-2.797,19.711-7.673,27.154
			C35.878,73.945,30.146,78,25,78c-5.148,0-10.877-4.055-15.327-10.846C4.797,59.711,2,49.814,2,40s2.797-19.712,7.673-27.155
			C14.123,6.053,19.853,1.998,25,1.998 M25-0.002C13-0.002,0,18,0,40s13,40,25,40s25-18,25-40S37-0.002,25-0.002L25-0.002z"/>
	</g>
</g>
</svg>
